<svg width="96" height="96" xmlns="http://www.w3.org/2000/svg" xmlns:xlink="http://www.w3.org/1999/xlink" xml:space="preserve" overflow="hidden"><g><path d="M48 15.5C49.7 15.5 51 14.2 51 12.5 51 10.8 49.7 6.5 48 6.5 46.3 6.5 48.4 8.5 46 10.5 45.9 10.6 45.9 10.6 45.8 10.7 45.4 11.2 45 11.7 45 12.5 45 14.2 46.3 15.5 48 15.5Z" fill="#FFFFFF"/><path d="M38 20.5C39.7 20.5 41 19.2 41 17.5 41 15.8 39.7 11.5 38 11.5 36.3 11.5 38.4 13.5 36 15.5 35.9 15.6 35.9 15.6 35.8 15.7 35.4 16.2 35 16.7 35 17.5 35 19.2 36.3 20.5 38 20.5Z" fill="#FFFFFF"/><path d="M58 20.5C59.7 20.5 61 19.2 61 17.5 61 15.8 59.7 11.5 58 11.5 56.3 11.5 58.4 13.5 56 15.5 55.9 15.6 55.9 15.6 55.8 15.7 55.4 16.2 55 16.7 55 17.5 55 19.2 56.3 20.5 58 20.5Z" fill="#FFFFFF"/><path d="M30 57.8C33.1 54.7 39.2 54.7 42.3 57.8 43.1 58.6 45.3 58.6 46.1 57.8 49.2 54.7 55.3 54.7 58.4 57.8 59.2 58.6 61.4 58.6 62.2 57.8 65.3 54.7 71.4 54.7 74.5 57.8 74.8 58.1 75.3 58.3 75.9 58.4L75.9 42.5C75.9 39.8 69.8 37.5 60.9 36.3L60.9 25.5C60.9 24.9 59.6 24.5 57.9 24.5 56.2 24.5 54.9 24.9 54.9 25.5L54.9 35.7C53.6 35.6 52.3 35.6 50.9 35.5L50.9 20.5C50.9 19.9 49.6 19.5 47.9 19.5 46.2 19.5 44.9 19.9 44.9 20.5L44.9 35.5C43.5 35.5 42.2 35.6 40.9 35.7L40.9 25.5C40.9 24.9 39.6 24.5 37.9 24.5 36.2 24.5 34.9 24.9 34.9 25.5L34.9 36.3C26 37.5 19.9 39.8 19.9 42.5L19.9 55.5C22.2 55.5 24.5 56.3 26.1 57.8 27 58.6 29.2 58.6 30 57.8Z" fill="#FFFFFF"/><path d="M76 64.4C73.9 64.3 71.8 63.5 70.4 62.1 69.6 61.3 67.4 61.3 66.6 62.1 63.5 65.2 57.4 65.2 54.3 62.1 53.5 61.3 51.3 61.3 50.5 62.1 47.4 65.2 41.3 65.2 38.2 62.1 37.4 61.3 35.2 61.3 34.4 62.1 31.3 65.2 25.2 65.2 22.1 62.1 21.7 61.7 20.9 61.5 20.2 61.5L20.2 79.5 76.2 79.5 76.2 64.4Z" fill="#FFFFFF"/><path d="M76 83.5 20 83.5C18.3 83.5 17 84.8 17 86.5 17 88.2 18.3 89.5 20 89.5L76 89.5C77.7 89.5 79 88.2 79 86.5 79 84.8 77.7 83.5 76 83.5Z" fill="#FFFFFF"/></g></svg>